#!OML:ASF H:\GeneralSubjects\Female5\Project 1\Capture day 1\Session 1\Female5.ASF
:FULLY-SPECIFIED
:DEGREES
127
root 8.2583 16.1294 2.94392 -185.714 -61.1141 -162.797
lowerback 7.72728 5.79929 6.90304
upperback -10.1414 8.68974 0.561567
thorax -14.6673 3.21526 -4.82607
lowerneck -4.55092 -14.5297 -22.4949
upperneck 25.6693 -21.2543 9.10728
head 12.7508 -11.2615 3.74207
rclavicle -2.39039e-014 -9.93923e-016
rhumerus -1.34018 31.2865 -34.5037
rradius 75.1832
rwrist -23.7332
rhand -20.171 -17.7837
rfingers 7.12502
rthumb 6.17475 -47.6737
lclavicle -2.39039e-014 -9.93923e-016
lhumerus -63.2773 2.52045 33.1095
lradius 118.958
lwrist 33.6268
lhand -21.5465 24.8764
lfingers 7.12502
lthumb 4.8467 54.801
rfemur 2.13229 19.3995 38.7316
rtibia -5.18704
rfoot -46.4247 -30.3622
rtoes 20.4612
lfemur -18.0258 -16.2072 -14.2497
ltibia 19.4029
lfoot -26.3552 6.86609
ltoes -54.5504
128
root 8.25981 16.1238 2.91559 -186.682 -61.9058 -162.158
lowerback 7.75112 5.99198 7.13527
upperback -9.90532 9.0098 0.7425
thorax -14.3562 3.38549 -4.79076
lowerneck -3.94422 -14.6992 -23.2262
upperneck 25.542 -21.5777 9.23822
head 12.7597 -11.4736 3.85696
rclavicle 1.39895e-014 -3.27995e-014
rhumerus -5.02293 32.3252 -34.6309
rradius 79.275
rwrist -23.8133
rhand -19.9227 -17.7569
rfingers 7.12502
rthumb 6.41441 -47.6398
lclavicle 1.39895e-014 -3.27995e-014
lhumerus -63.2727 5.05888 25.1227
lradius 121.474
lwrist 40.3084
lhand -20.1316 25.1325
lfingers 7.12502
lthumb 6.21278 55.0214
rfemur 2.71027 19.5817 39.15
rtibia -5.32159
rfoot -47.4778 -30.5885
rtoes 21.5066
lfemur -18.0817 -15.8594 -14.1836
ltibia 19.9228
lfoot -25.8038 6.62021
ltoes -55.2733
129
root 8.25899 16.1129 2.88652 -187.288 -62.6866 -161.798
lowerback 7.60429 6.11358 6.97456
upperback -9.74265 9.16898 1.07391
thorax -14.131 3.52092 -4.33866
lowerneck -3.91528 -14.7815 -23.9244
upperneck 25.907 -21.6039 9.00383
head 12.9761 -11.5691 3.84131
rclavicle 2.17172e-014 -3.54831e-014
rhumerus -8.67255 33.588 -34.8764
rradius 83.3415
rwrist -23.621
rhand -19.7771 -18.066
rfingers 7.12502
rthumb 6.55503 -47.9445
lclavicle 2.17172e-014 -3.54831e-014
lhumerus -63.862 7.20541 17.9897
lradius 123.829
lwrist 43.4131
lhand -20.1975 24.9108
lfingers 7.12502
lthumb 6.14913 54.8015
rfemur 3.21012 20.1523 39.4387
rtibia -5.44764
rfoot -48.9154 -30.7926
rtoes 22.4061
lfemur -18.3148 -15.6308 -14.2534
ltibia 20.5511
lfoot -25.4345 6.25678
ltoes -55.6504
130
root 8.25231 16.0963 2.86661 -187.786 -63.7093 -161.493
lowerback 7.36768 6.17289 6.9029
upperback -9.70432 9.23956 1.34695
thorax -13.9888 3.58911 -3.98062
lowerneck -4.04758 -14.8663 -24.4561
upperneck 26.6127 -21.5457 8.35654
head 13.2746 -11.6584 3.6478
rclavicle -1.68854e-014 -1.42876e-014
rhumerus -12.7412 34.8737 -35.5075
rradius 87.1063
rwrist -23.0215
rhand -19.4868 -17.8363
rfingers 7.12502
rthumb 6.83527 -47.706
lclavicle -1.68854e-014 -1.42876e-014
lhumerus -64.3788 9.19324 10.8524
lradius 125.927
lwrist 46.7373
lhand -17.4076 23.6375
lfingers 7.12502
lthumb 8.84202 53.4323
rfemur 3.79534 21.1351 39.6564
rtibia -5.79171
rfoot -51.1643 -30.9069
rtoes 23.7656
lfemur -18.9147 -15.6175 -14.4605
ltibia 21.632
lfoot -25.1771 5.55481
ltoes -55.4795
131
root 8.24267 16.0813 2.84849 -188.287 -64.6913 -161.186
lowerback 7.12108 6.31162 7.15982
upperback -9.73205 9.43992 1.39436
thorax -13.8165 3.67028 -4.06391
lowerneck -2.6555 -14.8366 -25.1191
upperneck 26.2502 -21.8033 8.44081
head 13.0062 -11.8833 3.82103
rclavicle 2.85753e-015 -6.70898e-015
rhumerus -17.4737 35.749 -36.8826
rradius 90.4433
rwrist -21.964
rhand -19.1879 -16.999
rfingers 7.12502
rthumb 7.12379 -46.8591
lclavicle 2.85753e-015 -6.70898e-015
lhumerus -64.2939 10.9763 4.14232
lradius 127.981
lwrist 49.9195
lhand -16.0675 22.8382
lfingers 7.12502
lthumb 10.135 52.5741
rfemur 4.47633 22.2344 39.9129
rtibia -6.23143
rfoot -53.7116 -30.9806
rtoes 25.6987
lfemur -19.4863 -15.5249 -14.7019
ltibia 22.7014
lfoot -24.8333 4.94837
ltoes -55.6281
132
root 8.23573 16.0714 2.83291 -188.645 -65.5444 -161.027
lowerback 7.0351 6.48961 7.55503
upperback -9.76449 9.71763 1.30518
thorax -13.6941 3.76319 -4.39953
lowerneck -1.50908 -14.8188 -25.7645
upperneck 26.0283 -22.1151 8.73006
head 12.8851 -12.1053 4.03407
rclavicle -7.07922e-014 -2.24627e-014
rhumerus -22.276 36.2706 -38.5968
rradius 93.424
rwrist -21.0004
rhand -18.87 -16.3188
rfingers 7.12502
rthumb 7.43067 -46.1683
lclavicle -7.07922e-014 -2.24627e-014
lhumerus -63.9013 12.7242 -2.00441
lradius 130.261
lwrist 53.7223
lhand -15.3156 22.638
lfingers 7.12502
lthumb 10.8603 52.3372
rfemur 5.03571 22.833 40.0332
rtibia -6.57591
rfoot -55.4974 -31.0625
rtoes 27.0379
lfemur -19.9153 -15.2742 -14.9972
ltibia 23.5511
lfoot -24.3903 4.62161
ltoes -56.4205
133
root 8.2322 16.0644 2.82355 -189.416 -66.2004 -160.412
lowerback 7.14691 6.59586 7.9844
upperback -9.81332 9.94522 1.42664
thorax -13.7556 3.82521 -4.54435
lowerneck -1.22615 -14.8315 -26.1542
upperneck 26.291 -22.2195 8.65912
head 13.0076 -12.2164 4.04637
rclavicle 2.85008e-014 5.34731e-014
rhumerus -26.3542 36.9032 -40.075
rradius 96.0185
rwrist -20.3622
rhand -18.4855 -15.948
rfingers 7.12502
rthumb 7.80172 -45.7841
lclavicle 2.85008e-014 5.34731e-014
lhumerus -63.2308 15.3322 -7.47206
lradius 132.294
lwrist 57.7064
lhand -14.1979 23.0508
lfingers 7.12502
lthumb 11.9382 52.6904
rfemur 5.13139 22.0528 40.0544
rtibia -6.52764
rfoot -55.3558 -30.6782
rtoes 27.1687
lfemur -20.3209 -14.9326 -15.0097
ltibia 24.3953
lfoot -24.0417 4.44852
ltoes -57.4451
134
root 8.22813 16.0597 2.81911 -190.514 -66.6228 -159.429
lowerback 7.24806 6.66816 8.58385
upperback -9.91858 10.1538 1.60536
thorax -13.8653 3.85505 -4.71392
lowerneck -1.12013 -14.7801 -26.0711
upperneck 26.6674 -22.1306 8.21537
head 13.0542 -12.2335 3.89319
rclavicle -3.81418e-014 -1.53064e-014
rhumerus -30.1572 37.4489 -41.8754
rradius 98.1849
rwrist -19.766
rhand -18.244 -15.7063
rfingers 7.12502
rthumb 8.03487 -45.5335
lclavicle -3.81418e-014 -1.53064e-014
lhumerus -62.6275 17.7609 -12.3694
lradius 134.528
lwrist 61.9593
lhand -13.2837 23.5021
lfingers 7.12502
lthumb 12.8197 53.0885
rfemur 4.8526 20.1488 40.0058
rtibia -6.12246
rfoot -53.7364 -29.8544
rtoes 26.6463
lfemur -20.6423 -14.4897 -14.8002
ltibia 25.1823
lfoot -23.7699 4.49091
ltoes -58.5096
135
root 8.22478 16.0575 2.8184 -191.468 -66.897 -158.575
lowerback 7.30699 6.72587 9.2729
upperback -10.0517 10.3463 1.74914
thorax -13.962 3.86339 -4.95949
lowerneck -1.10257 -14.6677 -25.9781
upperneck 27.0542 -21.9228 7.76577
head 13.098 -12.1964 3.75507
rclavicle -1.2424e-014 -3.35946e-014
rhumerus -33.9273 37.7844 -44.036
rradius 100.022
rwrist -19.1637
rhand -17.9475 -15.5109
rfingers 7.12502
rthumb 8.32102 -45.327
lclavicle -1.2424e-014 -3.35946e-014
lhumerus -61.893 20.2669 -16.4944
lradius 136.898
lwrist 66.3085
lhand -12.591 24.681
lfingers 7.12502
lthumb 13.4875 54.2242
rfemur 4.5079 18.1879 39.9074
rtibia -5.65509
rfoot -51.9007 -29.1704
rtoes 25.9693
lfemur -20.8014 -13.99 -14.6149
ltibia 25.6468
lfoot -23.4087 4.58663
ltoes -59.2646
136
root 8.22471 16.0583 2.81954 -192.085 -67.0701 -158.079
lowerback 7.38565 6.72871 9.79147
upperback -10.147 10.4508 1.97797
thorax -14.082 3.85124 -5.01041
lowerneck -1.67579 -14.521 -26.087
upperneck 27.644 -21.4983 7.3608
head 13.3381 -12.0556 3.64664
rclavicle -6.04802e-014 -2.78299e-015
rhumerus -37.2481 38.0585 -46.0617
rradius 101.548
rwrist -18.5513
rhand -17.502 -15.2146
rfingers 7.12502
rthumb 8.75094 -45.0132
lclavicle -6.04802e-014 -2.78299e-015
lhumerus -61.158 22.6 -19.4417
lradius 139.46
lwrist 69.8827
lhand -12.4411 25.8217
lfingers 7.12502
lthumb 13.6319 55.3553
rfemur 4.16317 16.4884 39.732
rtibia -5.12614
rfoot -50.2026 -28.6297
rtoes 25.1884
lfemur -20.8201 -13.4902 -14.5438
ltibia 25.8669
lfoot -23.1147 4.24354
ltoes -59.191
137
root 8.22657 16.0577 2.82176 -192.121 -67.1113 -158.21
lowerback 7.49855 6.73159 10.1432
upperback -10.2245 10.5329 2.1405
thorax -14.2173 3.84223 -5.0471
lowerneck -1.29793 -14.2821 -26.0971
upperneck 27.3778 -21.1876 7.23491
head 13.0759 -11.946 3.70948
rclavicle -2.96189e-014 -2.70347e-014
rhumerus -39.984 38.1615 -47.9689
rradius 102.573
rwrist -18.0011
rhand -17.1338 -14.8749
rfingers 7.12502
rthumb 9.10621 -44.6583
lclavicle -2.96189e-014 -2.70347e-014
lhumerus -59.8836 24.6221 -20.7884
lradius 141.973
lwrist 71.6947
lhand -12.733 25.8626
lfingers 7.12502
lthumb 13.3505 55.4149
rfemur 3.85356 15.2401 39.4259
rtibia -4.51184
rfoot -48.7927 -28.1274
rtoes 24.5502
lfemur -20.6861 -13.0129 -14.6898
ltibia 25.949
lfoot -23.0117 3.78539
ltoes -58.768
138
root 8.22856 16.0537 2.82516 -191.697 -66.9707 -158.807
lowerback 7.60095 6.71687 10.3584
upperback -10.2912 10.5703 2.2998
thorax -14.3604 3.82612 -5.0076
lowerneck -1.33298 -14.0265 -25.8523
upperneck 27.2537 -20.6648 6.77352
head 12.8391 -11.7338 3.62338
rclavicle 2.65378e-014 -1.31198e-014
rhumerus -41.8245 38.3029 -49.5235
rradius 103.065
rwrist -17.6246
rhand -16.787 -14.7718
rfingers 7.12502
rthumb 9.44086 -44.5403
lclavicle 2.65378e-014 -1.31198e-014
lhumerus -58.0987 26.2357 -20.5271
lradius 144.358
lwrist 71.8981
lhand -13.0961 25.3923
lfingers 7.12502
lthumb 13.0006 54.9672
rfemur 3.63231 14.5682 39.093
rtibia -3.96449
rfoot -47.7484 -27.7523
rtoes 24.4146
lfemur -20.3709 -12.6443 -14.9498
ltibia 25.7654
lfoot -23.0469 3.7686
ltoes -58.6968
139
root 8.23153 16.0496 2.83117 -191.083 -66.6663 -159.575
lowerback 7.73305 6.62351 10.5201
upperback -10.358 10.5032 2.52583
thorax -14.5615 3.76445 -4.85577
lowerneck -2.31585 -13.7179 -25.4364
upperneck 27.6405 -19.7623 5.97782
head 12.8736 -11.3497 3.37934
rclavicle -4.1546e-014 -4.45278e-014
rhumerus -42.9339 38.7262 -50.7835
rradius 103.205
rwrist -17.3199
rhand -16.6301 -14.6332
rfingers 7.12502
rthumb 9.59223 -44.3948
lclavicle -4.1546e-014 -4.45278e-014
lhumerus -55.9041 27.4113 -19.0309
lradius 146.461
lwrist 71.1516
lhand -13.0956 25.4396
lfingers 7.12502
lthumb 13.001 55.0145
rfemur 3.49583 14.271 38.8029
rtibia -3.57673
rfoot -46.9827 -27.5366
rtoes 24.3075
lfemur -19.9183 -12.3069 -15.22
ltibia 25.3268
lfoot -23.0845 3.96569
ltoes -58.7325
140
root 8.23487 16.0455 2.84244 -190.026 -66.2252 -160.738
lowerback 7.85933 6.46604 10.588
upperback -10.4157 10.3334 2.74188
thorax -14.7752 3.66376 -4.6482
lowerneck -2.3449 -13.281 -25.1793
upperneck 27.222 -18.9889 5.65282
head 12.4976 -11.0025 3.39808
rclavicle -2.26615e-014 2.46493e-014
rhumerus -43.5765 39.3415 -51.9362
rradius 103.152
rwrist -17.1151
rhand -16.6806 -14.2353
rfingers 7.12502
rthumb 9.54354 -43.9992
lclavicle -2.26615e-014 2.46493e-014
lhumerus -53.2471 28.2035 -16.4986
lradius 148.139
lwrist 69.6824
lhand -12.5355 26.028
lfingers 7.12502
lthumb 13.5409 55.5677
rfemur 3.32451 14.1182 38.3717
rtibia -3.26545
rfoot -46.2248 -27.4596
rtoes 23.3173
lfemur -19.4292 -11.9605 -15.6427
ltibia 24.7298
lfoot -23.1253 4.10814
ltoes -58.43
